<svg width="48" height="48" viewBox="0 0 48 48" fill="none" xmlns="http://www.w3.org/2000/svg">
<g id="Frame 117">
<rect x="0.5" y="0.5" width="47" height="47" rx="7.5" fill="white" fill-opacity="0.4"/>
<g id="chat_bubble">
<mask id="mask0_211_438" style="mask-type:alpha" maskUnits="userSpaceOnUse" x="12" y="12" width="24" height="24">
<rect id="Bounding box" x="12" y="12" width="24" height="24" fill="#D9D9D9"/>
</mask>
<g mask="url(#mask0_211_438)">
<path id="chat_bubble_2" d="M14 34V16C14 15.45 14.1958 14.9792 14.5875 14.5875C14.9792 14.1958 15.45 14 16 14H32C32.55 14 33.0208 14.1958 33.4125 14.5875C33.8042 14.9792 34 15.45 34 16V28C34 28.55 33.8042 29.0208 33.4125 29.4125C33.0208 29.8042 32.55 30 32 30H18L14 34ZM17.15 28H32V16H16V29.125L17.15 28Z" fill="#1C1B1F"/>
</g>
</g>
<rect x="0.5" y="0.5" width="47" height="47" rx="7.5" stroke="#E0E0E0"/>
</g>
</svg>
