<svg width="48" height="48" viewBox="0 0 48 48" fill="none" xmlns="http://www.w3.org/2000/svg">
<g id="Frame 76">
<path id="Vector" d="M29 42C28.6 42 28.25 41.85 27.95 41.55C27.65 41.25 27.5 40.9 27.5 40.5C27.5 40.0667 27.65 39.7083 27.95 39.425C28.25 39.1417 28.6 39 29 39C30.9667 39 32.625 38.6 33.975 37.8C35.325 37 36 36.0667 36 35C36 34.2333 35.5083 33.4833 34.525 32.75C33.5417 32.0167 32.2167 31.45 30.55 31.05L32.9 28.7C35 29.3333 36.5417 30.2083 37.525 31.325C38.5083 32.4417 39 33.6667 39 35C39 37.2333 37.9833 38.9583 35.95 40.175C33.9167 41.3917 31.6 42 29 42ZM13 27.3C10.8667 26.8333 9.33333 26.1 8.4 25.1C7.46667 24.1 7 23.0667 7 22C7 20.8333 7.43333 19.7833 8.3 18.85C9.16667 17.9167 11.1667 16.8833 14.3 15.75C16.5 14.95 17.9167 14.3 18.55 13.8C19.1833 13.3 19.5 12.7167 19.5 12.05C19.5 11.2167 19.1333 10.5 18.4 9.9C17.6667 9.3 16.5333 9 15 9C14.1 9 13.3333 9.11667 12.7 9.35C12.0667 9.58333 11.5 9.95 11 10.45C10.7333 10.7167 10.3917 10.875 9.975 10.925C9.55833 10.975 9.18333 10.8667 8.85 10.6C8.48333 10.3333 8.29167 10 8.275 9.6C8.25833 9.2 8.38333 8.85 8.65 8.55C9.21667 7.81667 10.0667 7.20833 11.2 6.725C12.3333 6.24167 13.6 6 15 6C17.2667 6 19.0833 6.54167 20.45 7.625C21.8167 8.70833 22.5 10.1833 22.5 12.05C22.5 13.4167 22.025 14.575 21.075 15.525C20.125 16.475 18.2667 17.4667 15.5 18.5C13.2667 19.3333 11.7917 19.9917 11.075 20.475C10.3583 20.9583 10 21.4667 10 22C10 22.5333 10.45 23.0417 11.35 23.525C12.25 24.0083 13.6 24.4667 15.4 24.9L13 27.3ZM37.8 19.6L31.4 13.2L33.65 10.95C34.25 10.35 34.9167 10.05 35.65 10.05C36.3833 10.05 37.05 10.35 37.65 10.95L40.05 13.35C40.65 13.95 40.95 14.6167 40.95 15.35C40.95 16.0833 40.65 16.75 40.05 17.35L37.8 19.6ZM12 39H14.1L31.35 21.75L29.25 19.65L12 36.9V39ZM9.75 42C9.55 42 9.375 41.925 9.225 41.775C9.075 41.625 9 41.45 9 41.25V35.9C9 35.8333 9.06667 35.6667 9.2 35.4L29.25 15.35L35.65 21.75L15.6 41.8C15.5333 41.8667 15.3667 41.9333 15.1 42H9.75Z" fill="#70C1D6"/>
</g>
</svg>
