<svg width="48" height="48" viewBox="0 0 48 48" fill="none" xmlns="http://www.w3.org/2000/svg">
<g id="developer_mode_FILL0_wght400_GRAD0_opsz48 1">
<path id="Vector" d="M12.2996 24L18.2496 29.95C18.5496 30.25 18.6913 30.6 18.6746 31C18.6579 31.4 18.5121 31.752 18.2371 32.056C17.9371 32.36 17.5809 32.5183 17.1684 32.531C16.7559 32.5437 16.3996 32.4 16.0996 32.1L9.04961 25.05C8.74961 24.75 8.59961 24.4 8.59961 24C8.59961 23.6 8.74961 23.25 9.04961 22.95L16.0996 15.9C16.4018 15.6 16.7607 15.4583 17.1763 15.475C17.5918 15.4917 17.9496 15.65 18.2496 15.95C18.5246 16.25 18.6684 16.6 18.6809 17C18.6934 17.4 18.5496 17.75 18.2496 18.05L12.2996 24ZM9.99961 34.7H12.9996V38.5H34.9996V34.7H37.9996V43C37.9996 43.8 37.6996 44.5 37.0996 45.1C36.4996 45.7 35.7996 46 34.9996 46H12.9996C12.1996 46 11.4996 45.7 10.8996 45.1C10.2996 44.5 9.99961 43.8 9.99961 43V34.7ZM12.9996 12.7H9.99961V5C9.99961 4.2 10.2996 3.5 10.8996 2.9C11.4996 2.3 12.1996 2 12.9996 2H34.9996C35.7996 2 36.4996 2.3 37.0996 2.9C37.6996 3.5 37.9996 4.2 37.9996 5V12.7H34.9996V9.5H12.9996V12.7ZM12.9996 41.5V43H34.9996V41.5H12.9996ZM12.9996 6.5H34.9996V5H12.9996V6.5ZM35.6996 24L29.7496 18.05C29.4496 17.75 29.3079 17.4 29.3246 17C29.3413 16.6 29.4871 16.248 29.7621 15.944C30.0621 15.64 30.4184 15.4817 30.8309 15.469C31.2434 15.4563 31.5996 15.6 31.8996 15.9L38.9496 22.95C39.2496 23.25 39.3996 23.6 39.3996 24C39.3996 24.4 39.2496 24.75 38.9496 25.05L31.8996 32.1C31.5974 32.4 31.2385 32.5417 30.823 32.525C30.4074 32.5083 30.0496 32.35 29.7496 32.05C29.4746 31.75 29.3309 31.4 29.3184 31C29.3059 30.6 29.4496 30.25 29.7496 29.95L35.6996 24Z" fill="#70C1D6"/>
</g>
</svg>
