<svg width="48" height="49" viewBox="0 0 48 49" fill="none" xmlns="http://www.w3.org/2000/svg">
<g id="icons8-facebook-48 1">
<rect y="0.5" width="48" height="48" rx="8" fill="#8F8F8F"/>
<path id="Vector" d="M38 6.5H10C7.79 6.5 6 8.29 6 10.5V38.5C6 40.71 7.79 42.5 10 42.5H25.242V28.578H20.556V23.128H25.242V19.118C25.242 14.47 28.084 11.936 32.232 11.936C33.63 11.932 35.026 12.004 36.416 12.146V17.006H33.56C31.3 17.006 30.86 18.074 30.86 19.65V23.12H36.26L35.558 28.57H30.828V42.5H38C40.21 42.5 42 40.71 42 38.5V10.5C42 8.29 40.21 6.5 38 6.5Z" fill="#8BDFD6"/>
</g>
</svg>
