<svg width="48" height="48" viewBox="0 0 48 48" fill="none" xmlns="http://www.w3.org/2000/svg">
<g id="Frame 117">
<rect x="0.5" y="0.5" width="47" height="47" rx="7.5" fill="white" fill-opacity="0.4"/>
<g id="call">
<mask id="mask0_211_448" style="mask-type:alpha" maskUnits="userSpaceOnUse" x="12" y="12" width="24" height="24">
<rect id="Bounding box" x="12" y="12" width="24" height="24" fill="#D9D9D9"/>
</mask>
<g mask="url(#mask0_211_448)">
<path id="call_2" d="M31.95 33C29.8 33 27.7042 32.5208 25.6625 31.5625C23.6208 30.6042 21.8125 29.3375 20.2375 27.7625C18.6625 26.1875 17.3958 24.3792 16.4375 22.3375C15.4792 20.2958 15 18.2 15 16.05C15 15.75 15.1 15.5 15.3 15.3C15.5 15.1 15.75 15 16.05 15H20.1C20.3333 15 20.5417 15.075 20.725 15.225C20.9083 15.375 21.0167 15.5667 21.05 15.8L21.7 19.3C21.7333 19.5333 21.7292 19.7458 21.6875 19.9375C21.6458 20.1292 21.55 20.3 21.4 20.45L18.975 22.9C19.675 24.1 20.5542 25.225 21.6125 26.275C22.6708 27.325 23.8333 28.2333 25.1 29L27.45 26.65C27.6 26.5 27.7958 26.3875 28.0375 26.3125C28.2792 26.2375 28.5167 26.2167 28.75 26.25L32.2 26.95C32.4333 27 32.625 27.1125 32.775 27.2875C32.925 27.4625 33 27.6667 33 27.9V31.95C33 32.25 32.9 32.5 32.7 32.7C32.5 32.9 32.25 33 31.95 33ZM18.025 21L19.675 19.35L19.25 17H17.025C17.1083 17.6833 17.225 18.3583 17.375 19.025C17.525 19.6917 17.7417 20.35 18.025 21ZM26.975 29.95C27.625 30.2333 28.2875 30.4583 28.9625 30.625C29.6375 30.7917 30.3167 30.9 31 30.95V28.75L28.65 28.275L26.975 29.95Z" fill="#1C1B1F"/>
</g>
</g>
<rect x="0.5" y="0.5" width="47" height="47" rx="7.5" stroke="#E0E0E0"/>
</g>
</svg>
