<svg width="48" height="48" viewBox="0 0 48 48" fill="none" xmlns="http://www.w3.org/2000/svg">
<g id="trending_up_FILL0_wght400_GRAD0_opsz48 1">
<path id="Vector" d="M5.10014 34.9016C4.80014 34.6016 4.65848 34.2516 4.67514 33.8516C4.69181 33.4516 4.83348 33.1016 5.10014 32.8016L17.5501 20.3516C17.7168 20.1849 17.8835 20.0682 18.0501 20.0016C18.2168 19.9349 18.4001 19.9016 18.6001 19.9016C18.8001 19.9016 18.9835 19.9349 19.1501 20.0016C19.3168 20.0682 19.4835 20.1849 19.6501 20.3516L26.9501 27.6516L39.0001 15.6016H34.1501C33.7168 15.6016 33.3585 15.4599 33.0751 15.1766C32.7918 14.8932 32.6501 14.5349 32.6501 14.1016C32.6501 13.6682 32.7918 13.3099 33.0751 13.0266C33.3585 12.7432 33.7168 12.6016 34.1501 12.6016H42.5001C42.9335 12.6016 43.2918 12.7432 43.5751 13.0266C43.8585 13.3099 44.0001 13.6682 44.0001 14.1016V22.4516C44.0001 22.8516 43.8585 23.2016 43.5751 23.5016C43.2918 23.8016 42.9501 23.9516 42.5501 23.9516C42.1501 23.9516 41.8001 23.8016 41.5001 23.5016C41.2001 23.2016 41.0501 22.8516 41.0501 22.4516V17.8016L27.9501 30.9016C27.7835 31.0682 27.6168 31.1849 27.4501 31.2516C27.2835 31.3182 27.1001 31.3516 26.9001 31.3516C26.7001 31.3516 26.5168 31.3182 26.3501 31.2516C26.1835 31.1849 26.0168 31.0682 25.8501 30.9016L18.5501 23.6016L7.20014 34.9516C6.93348 35.2182 6.59181 35.3516 6.17514 35.3516C5.75848 35.3516 5.40014 35.2016 5.10014 34.9016Z" fill="#70C1D6"/>
</g>
</svg>
