<svg width="48" height="49" viewBox="0 0 48 49" fill="none" xmlns="http://www.w3.org/2000/svg">
<g id="icons8-twitter 1">
<rect y="0.5" width="48" height="48" rx="8" fill="#8F8F8F"/>
<path id="Vector" d="M44 8.5C42.44 9.426 39.31 10.688 37.47 11.052C37.416 11.066 37.372 11.084 37.32 11.098C35.694 9.494 33.466 8.5 31 8.5C26.03 8.5 22 12.53 22 17.5C22 17.762 21.978 18.244 22 18.5C15.294 18.5 10.19 14.988 6.53 10.5C6.132 11.5 5.958 13.08 5.958 14.564C5.958 17.366 8.148 20.118 11.558 21.824C10.93 21.986 10.238 22.102 9.518 22.102C8.356 22.102 7.126 21.796 6 20.868C6 20.902 6 20.934 6 20.97C6 24.886 10.156 27.552 13.852 28.294C13.102 28.736 11.59 28.78 10.852 28.78C10.332 28.78 8.492 28.542 8 28.45C9.028 31.66 12.736 33.464 16.27 33.528C13.506 35.696 11.588 36.5 5.928 36.5H4C7.576 38.792 12.13 40.502 16.694 40.502C31.554 40.502 40 29.176 40 18.5C40 18.328 39.996 17.968 39.99 17.606C39.99 17.57 40 17.536 40 17.5C40 17.446 39.984 17.394 39.984 17.34C39.978 17.068 39.972 16.814 39.966 16.682C41.546 15.542 42.916 14.12 44 12.5C42.55 13.144 40.994 13.576 39.36 13.772C41.028 12.772 43.398 10.388 44 8.5Z" fill="#8BDFD6"/>
</g>
</svg>
